<svg xmlns="http://www.w3.org/2000/svg" xmlns:xlink="http://www.w3.org/1999/xlink" width="36" viewBox="0 0 36 36" height="36" version="1.0"><defs><clipPath id="b"><path d="M 19 4 L 35.511719 4 L 35.511719 18 L 19 18 Z M 19 4"/></clipPath><clipPath id="e"><path d="M 0.632812 0.671875 L 16.511719 0.671875 L 16.511719 13.28125 L 0.632812 13.28125 Z M 0.632812 0.671875"/></clipPath><clipPath id="d"><path d="M0 0H17V14H0z"/></clipPath><clipPath id="f"><path d="M 19 17 L 35.511719 17 L 35.511719 31 L 19 31 Z M 19 17"/></clipPath><clipPath id="i"><path d="M 0.632812 0.511719 L 16.511719 0.511719 L 16.511719 13 L 0.632812 13 Z M 0.632812 0.511719"/></clipPath><clipPath id="h"><path d="M0 0H17V14H0z"/></clipPath><clipPath id="l"><path d="M 0.0585938 0.671875 L 16.40625 0.671875 L 16.40625 13.28125 L 0.0585938 13.28125 Z M 0.0585938 0.671875"/></clipPath><clipPath id="k"><path d="M0 0H17V14H0z"/></clipPath><clipPath id="o"><path d="M 0.0585938 0.511719 L 16.40625 0.511719 L 16.40625 13 L 0.0585938 13 Z M 0.0585938 0.511719"/></clipPath><clipPath id="n"><path d="M0 0H17V14H0z"/></clipPath><clipPath id="p"><path d="M 0.488281 4 L 17 4 L 17 18 L 0.488281 18 Z M 0.488281 4"/></clipPath><clipPath id="s"><path d="M 0.488281 0.671875 L 16.597656 0.671875 L 16.597656 13.28125 L 0.488281 13.28125 Z M 0.488281 0.671875"/></clipPath><clipPath id="r"><path d="M0 0H17V14H0z"/></clipPath><clipPath id="t"><path d="M 0.488281 17 L 17 17 L 17 31 L 0.488281 31 Z M 0.488281 17"/></clipPath><clipPath id="w"><path d="M 0.488281 0.511719 L 16.597656 0.511719 L 16.597656 13 L 0.488281 13 Z M 0.488281 0.511719"/></clipPath><clipPath id="v"><path d="M0 0H17V14H0z"/></clipPath><mask id="c"><g filter="url(#a)"><path fill-opacity=".847" d="M-3.6 -3.6H39.6V39.6H-3.6z"/></g></mask><mask id="g"><g filter="url(#a)"><path fill-opacity=".847" d="M-3.6 -3.6H39.6V39.6H-3.6z"/></g></mask><mask id="j"><g filter="url(#a)"><path fill-opacity=".8" d="M-3.6 -3.6H39.6V39.6H-3.6z"/></g></mask><mask id="m"><g filter="url(#a)"><path fill-opacity=".8" d="M-3.6 -3.6H39.6V39.6H-3.6z"/></g></mask><mask id="q"><g filter="url(#a)"><path fill-opacity=".6" d="M-3.6 -3.6H39.6V39.6H-3.6z"/></g></mask><mask id="u"><g filter="url(#a)"><path fill-opacity=".6" d="M-3.6 -3.6H39.6V39.6H-3.6z"/></g></mask><filter x="0%" y="0%" width="100%" xmlns:xlink="http://www.w3.org/1999/xlink" xlink:type="simple" xlink:actuate="onLoad" height="100%" id="a" xlink:show="other"><feColorMatrix values="0 0 0 0 1 0 0 0 0 1 0 0 0 0 1 0 0 0 1 0" color-interpolation-filters="sRGB"/></filter></defs><g clip-path="url(#b)"><g mask="url(#c)"><g><g clip-path="url(#d)" transform="translate(19 4)"><g clip-path="url(#e)"><path fill="#FFE066" d="M 9.6875 0.800781 L 0.769531 0.800781 L 7.902344 7.003906 L 0.769531 13.207031 L 9.6875 13.207031 L 16.820312 7.003906 L 9.6875 0.800781"/></g></g></g></g></g><g clip-path="url(#f)"><g mask="url(#g)"><g><g clip-path="url(#h)" transform="translate(19 17)"><g clip-path="url(#i)"><path fill="#FFE066" d="M 9.6875 0.511719 L 0.769531 0.511719 L 7.902344 6.71875 L 0.769531 12.917969 L 9.6875 12.917969 L 16.820312 6.71875 L 9.6875 0.511719"/></g></g></g></g></g><g mask="url(#j)"><g><g clip-path="url(#k)" transform="translate(10 4)"><g clip-path="url(#l)"><path fill="#FFE066" d="M 9.113281 0.800781 L 0.195312 0.800781 L 7.328125 7.003906 L 0.195312 13.207031 L 9.113281 13.207031 L 16.246094 7.003906 L 9.113281 0.800781"/></g></g></g></g><g mask="url(#m)"><g><g clip-path="url(#n)" transform="translate(10 17)"><g clip-path="url(#o)"><path fill="#FFE066" d="M 9.113281 0.511719 L 0.195312 0.511719 L 7.328125 6.71875 L 0.195312 12.917969 L 9.113281 12.917969 L 16.246094 6.71875 L 9.113281 0.511719"/></g></g></g></g><g clip-path="url(#p)"><g mask="url(#q)"><g><g clip-path="url(#r)" transform="translate(0 4)"><g clip-path="url(#s)"><path fill="#FFE066" d="M 9.40625 0.800781 L 0.488281 0.800781 L 7.621094 7.003906 L 0.488281 13.207031 L 9.40625 13.207031 L 16.539062 7.003906 L 9.40625 0.800781"/></g></g></g></g></g><g clip-path="url(#t)"><g mask="url(#u)"><g><g clip-path="url(#v)" transform="translate(0 17)"><g clip-path="url(#w)"><path fill="#FFE066" d="M 9.40625 0.511719 L 0.488281 0.511719 L 7.621094 6.71875 L 0.488281 12.917969 L 9.40625 12.917969 L 16.539062 6.71875 L 9.40625 0.511719"/></g></g></g></g></g></svg>