<svg xmlns="http://www.w3.org/2000/svg" xmlns:xlink="http://www.w3.org/1999/xlink" width="720" viewBox="0 0 720 335.25" height="335.25" version="1.0"><defs><clipPath id="d"><path d="M 0.550781 0 L 209 0 L 209 166.90625 L 0.550781 166.90625 Z M 0.550781 0"/></clipPath><clipPath id="c"><path d="M0 0H210V167H0z"/></clipPath><clipPath id="e"><path d="M 256 167 L 466 167 L 466 334.5 L 256 334.5 Z M 256 167"/></clipPath><clipPath id="h"><path d="M 0.550781 0.144531 L 209 0.144531 L 209 167.5 L 0.550781 167.5 Z M 0.550781 0.144531"/></clipPath><clipPath id="g"><path d="M0 0H210V168H0z"/></clipPath><clipPath id="k"><path d="M 0.394531 0 L 208.96875 0 L 208.96875 166.90625 L 0.394531 166.90625 Z M 0.394531 0"/></clipPath><clipPath id="j"><path d="M0 0H209V167H0z"/></clipPath><clipPath id="l"><path d="M 129 167 L 338 167 L 338 334.5 L 129 334.5 Z M 129 167"/></clipPath><clipPath id="o"><path d="M 0.394531 0.144531 L 208.96875 0.144531 L 208.96875 167.5 L 0.394531 167.5 Z M 0.394531 0.144531"/></clipPath><clipPath id="n"><path d="M0 0H209V168H0z"/></clipPath><clipPath id="p"><path d="M 510 167 L 719 167 L 719 334.5 L 510 334.5 Z M 510 167"/></clipPath><clipPath id="s"><path d="M 0.226562 0 L 208.800781 0 L 208.800781 166.90625 L 0.226562 166.90625 Z M 0.226562 0"/></clipPath><clipPath id="r"><path d="M0 0H209V167H0z"/></clipPath><clipPath id="t"><path d="M 383 167 L 592 167 L 592 334.5 L 383 334.5 Z M 383 167"/></clipPath><clipPath id="w"><path d="M 0.226562 0.144531 L 208.800781 0.144531 L 208.800781 167.5 L 0.226562 167.5 Z M 0.226562 0.144531"/></clipPath><clipPath id="v"><path d="M0 0H209V168H0z"/></clipPath><clipPath id="x"><path d="M 0.804688 0 L 210 0 L 210 167 L 0.804688 167 Z M 0.804688 0"/></clipPath><clipPath id="A"><path d="M 0.804688 0 L 209.136719 0 L 209.136719 166.90625 L 0.804688 166.90625 Z M 0.804688 0"/></clipPath><clipPath id="z"><path d="M0 0H210V167H0z"/></clipPath><clipPath id="B"><path d="M 0.804688 167 L 210 167 L 210 334.5 L 0.804688 334.5 Z M 0.804688 167"/></clipPath><clipPath id="E"><path d="M 0.804688 0.144531 L 209.136719 0.144531 L 209.136719 167.5 L 0.804688 167.5 Z M 0.804688 0.144531"/></clipPath><clipPath id="D"><path d="M0 0H210V168H0z"/></clipPath><mask id="b"><g filter="url(#a)"><path fill-opacity=".847" d="M-72 -33.525H792V368.77500000000003H-72z"/></g></mask><mask id="f"><g filter="url(#a)"><path fill-opacity=".847" d="M-72 -33.525H792V368.77500000000003H-72z"/></g></mask><mask id="i"><g filter="url(#a)"><path fill-opacity=".8" d="M-72 -33.525H792V368.77500000000003H-72z"/></g></mask><mask id="m"><g filter="url(#a)"><path fill-opacity=".8" d="M-72 -33.525H792V368.77500000000003H-72z"/></g></mask><mask id="q"><g filter="url(#a)"><path fill-opacity=".949" d="M-72 -33.525H792V368.77500000000003H-72z"/></g></mask><mask id="u"><g filter="url(#a)"><path fill-opacity=".949" d="M-72 -33.525H792V368.77500000000003H-72z"/></g></mask><mask id="y"><g filter="url(#a)"><path fill-opacity=".6" d="M-72 -33.525H792V368.77500000000003H-72z"/></g></mask><mask id="C"><g filter="url(#a)"><path fill-opacity=".6" d="M-72 -33.525H792V368.77500000000003H-72z"/></g></mask><filter x="0%" y="0%" width="100%" xmlns:xlink="http://www.w3.org/1999/xlink" xlink:type="simple" xlink:actuate="onLoad" height="100%" id="a" xlink:show="other"><feColorMatrix values="0 0 0 0 1 0 0 0 0 1 0 0 0 0 1 0 0 0 1 0" color-interpolation-filters="sRGB"/></filter></defs><g mask="url(#b)"><g><g clip-path="url(#c)" transform="translate(256)"><g clip-path="url(#d)"><path fill="#FFE066" d="M 116.316406 -1.363281 L 0.574219 -1.363281 L 93.152344 82.707031 L 0.574219 166.738281 L 116.316406 166.738281 L 208.894531 82.707031 L 116.316406 -1.363281"/></g></g></g></g><g clip-path="url(#e)"><g mask="url(#f)"><g><g clip-path="url(#g)" transform="translate(256 167)"><g clip-path="url(#h)"><path fill="#FFE066" d="M 116.316406 0.25 L 0.574219 0.25 L 93.152344 84.324219 L 0.574219 168.355469 L 116.316406 168.355469 L 208.894531 84.324219 L 116.316406 0.25"/></g></g></g></g></g><g mask="url(#i)"><g><g clip-path="url(#j)" transform="translate(129)"><g clip-path="url(#k)"><path fill="#FFE066" d="M 116.324219 -1.363281 L 0.582031 -1.363281 L 93.160156 82.707031 L 0.582031 166.738281 L 116.324219 166.738281 L 208.90625 82.707031 L 116.324219 -1.363281"/></g></g></g></g><g clip-path="url(#l)"><g mask="url(#m)"><g><g clip-path="url(#n)" transform="translate(129 167)"><g clip-path="url(#o)"><path fill="#FFE066" d="M 116.324219 0.25 L 0.582031 0.25 L 93.160156 84.324219 L 0.582031 168.355469 L 116.324219 168.355469 L 208.90625 84.324219 L 116.324219 0.25"/></g></g></g></g></g><path fill="#FFE066" d="M 626.109375 -1.363281 L 510.363281 -1.363281 L 602.941406 82.707031 L 510.363281 166.738281 L 626.109375 166.738281 L 718.6875 82.707031 L 626.109375 -1.363281"/><g clip-path="url(#p)"><path fill="#FFE066" d="M 626.109375 167.25 L 510.363281 167.25 L 602.941406 251.324219 L 510.363281 335.355469 L 626.109375 335.355469 L 718.6875 251.324219 L 626.109375 167.25"/></g><g mask="url(#q)"><g><g clip-path="url(#r)" transform="translate(383)"><g clip-path="url(#s)"><path fill="#FFE066" d="M 116.117188 -1.363281 L 0.371094 -1.363281 L 92.953125 82.707031 L 0.371094 166.738281 L 116.117188 166.738281 L 208.695312 82.707031 L 116.117188 -1.363281"/></g></g></g></g><g clip-path="url(#t)"><g mask="url(#u)"><g><g clip-path="url(#v)" transform="translate(383 167)"><g clip-path="url(#w)"><path fill="#FFE066" d="M 116.117188 0.25 L 0.371094 0.25 L 92.953125 84.324219 L 0.371094 168.355469 L 116.117188 168.355469 L 208.695312 84.324219 L 116.117188 0.25"/></g></g></g></g></g><g clip-path="url(#x)"><g mask="url(#y)"><g><g clip-path="url(#z)"><g clip-path="url(#A)"><path fill="#FFE066" d="M 116.554688 -1.363281 L 0.808594 -1.363281 L 93.386719 82.707031 L 0.808594 166.738281 L 116.554688 166.738281 L 209.132812 82.707031 L 116.554688 -1.363281"/></g></g></g></g></g><g clip-path="url(#B)"><g mask="url(#C)"><g><g clip-path="url(#D)" transform="translate(0 167)"><g clip-path="url(#E)"><path fill="#FFE066" d="M 116.554688 0.25 L 0.808594 0.25 L 93.386719 84.324219 L 0.808594 168.355469 L 116.554688 168.355469 L 209.132812 84.324219 L 116.554688 0.25"/></g></g></g></g></g><g fill="#FFF" fill-opacity=".4"><g><g><path d="M 78.796875 4.453125 C 61.203125 4.453125 45.03125 1.171875 30.28125 -5.390625 C 15.539062 -11.953125 3.460938 -21.304688 -5.953125 -33.453125 L 27.5 -73.59375 C 41.625 -54.519531 57.734375 -44.984375 75.828125 -44.984375 C 100.359375 -44.984375 112.625 -59.351562 112.625 -88.09375 L 112.625 -211.875 L 21.1875 -211.875 L 21.1875 -260.203125 L 172.484375 -260.203125 L 172.484375 -91.4375 C 172.484375 -59.46875 164.550781 -35.492188 148.6875 -19.515625 C 132.820312 -3.535156 109.523438 4.453125 78.796875 4.453125 Z M 78.796875 4.453125" transform="translate(103.587 301.086)"/></g></g></g><g fill="#343A40"><g><g><path d="M 78.796875 4.453125 C 61.203125 4.453125 45.03125 1.171875 30.28125 -5.390625 C 15.539062 -11.953125 3.460938 -21.304688 -5.953125 -33.453125 L 27.5 -73.59375 C 41.625 -54.519531 57.734375 -44.984375 75.828125 -44.984375 C 100.359375 -44.984375 112.625 -59.351562 112.625 -88.09375 L 112.625 -211.875 L 21.1875 -211.875 L 21.1875 -260.203125 L 172.484375 -260.203125 L 172.484375 -91.4375 C 172.484375 -59.46875 164.550781 -35.492188 148.6875 -19.515625 C 132.820312 -3.535156 109.523438 4.453125 78.796875 4.453125 Z M 78.796875 4.453125" transform="translate(126.817 300.68)"/></g></g></g><g fill="#FFF" fill-opacity=".4"><g><g><path d="M 124.75 -101.484375 L 90.046875 -65.328125 L 90.046875 0 L 30.625 0 L 30.625 -258.34375 L 90.046875 -258.34375 L 90.046875 -137.65625 L 204.453125 -258.34375 L 270.890625 -258.34375 L 163.859375 -143.203125 L 277.171875 0 L 207.40625 0 Z M 124.75 -101.484375" transform="translate(303.056 298.292)"/></g></g></g><g fill="#343A40"><g><g><path d="M 124.75 -101.484375 L 90.046875 -65.328125 L 90.046875 0 L 30.625 0 L 30.625 -258.34375 L 90.046875 -258.34375 L 90.046875 -137.65625 L 204.453125 -258.34375 L 270.890625 -258.34375 L 163.859375 -143.203125 L 277.171875 0 L 207.40625 0 Z M 124.75 -101.484375" transform="translate(326.12 297.89)"/></g></g></g></svg>